<?xml version="1.0" standalone="no"?>
<!DOCTYPE svg PUBLIC "-//W3C//DTD SVG 1.1//EN" "http://www.w3.org/Graphics/SVG/1.1/DTD/svg11.dtd">
<svg xmlns="http://www.w3.org/2000/svg" id="Capa_2" viewBox="0 0 209.36 37.73" width="209.36000061035156" height="37.72999954223633">
  <defs>
    <style>
      .cls-1 {
        fill: none;
      }

      .cls-2 {
        fill: #082053;
      }

      .cls-3 {
        fill: #306ab0;
      }
    </style>
  </defs>
  <g id="Capa_1-2" data-name="Capa_1">
    <g>
      <path class="cls-1" d="M170.89,21.53c.21.59.48,1.05.81,1.38.34.34.73.5,1.19.5s.86-.17,1.2-.5c.35-.34.63-.8.85-1.38.22-.59.38-1.28.49-2.08.11-.8.16-1.68.16-2.63s-.05-1.8-.16-2.6-.27-1.5-.49-2.08c-.22-.59-.5-1.05-.85-1.38-.35-.34-.75-.5-1.2-.5s-.85.17-1.19.5c-.34.34-.61.8-.81,1.38s-.36,1.28-.47,2.08-.16,1.67-.16,2.6.05,1.83.16,2.63c.11.8.27,1.5.47,2.08Z"/>
      <path class="cls-1" d="M156.99,12.46c-.28-.76-.65-1.32-1.09-1.68-.44-.36-.98-.54-1.61-.54s-1.16.22-1.59.65c-.43.43-.79,1.06-1.07,1.87-.28.81-.49,1.8-.62,2.96-.13,1.16-.2,2.47-.2,3.92h6.99c0-1.67-.06-3.09-.19-4.28-.13-1.18-.34-2.15-.62-2.91Z"/>
      <path class="cls-1" d="M178.18,33.01c-.64-.35-1.45-.63-2.44-.85-.99-.22-2.06-.41-3.24-.57s-2.28-.42-3.32-.76c-.33.26-.63.62-.91,1.07-.28.46-.42,1.03-.42,1.72,0,.61.13,1.14.39,1.59.26.46.63.83,1.11,1.12.48.29,1.05.51,1.71.67.66.15,1.39.23,2.2.23.56,0,1.19-.04,1.87-.13.68-.09,1.32-.23,1.92-.44.6-.21,1.09-.48,1.5-.83.4-.35.6-.77.6-1.27,0-.69-.32-1.21-.96-1.56Z"/>
      <path class="cls-1" d="M62.48,12.46c-.28-.76-.65-1.32-1.09-1.68-.44-.36-.98-.54-1.61-.54s-1.16.22-1.59.65c-.43.43-.79,1.06-1.07,1.87-.28.81-.49,1.8-.62,2.96-.13,1.16-.2,2.47-.2,3.92h6.99c0-1.67-.06-3.09-.19-4.28-.13-1.18-.34-2.15-.62-2.91Z"/>
      <path class="cls-1" d="M110.29,27.22v-9.79c-.43.48-.96.95-1.58,1.41-.62.47-1.21.99-1.77,1.58-.56.59-1.04,1.27-1.43,2.05-.39.78-.58,1.73-.58,2.86,0,.54.06,1.05.18,1.51s.3.88.54,1.24c.24.36.54.64.89.85.36.21.78.31,1.25.31.61,0,1.12-.15,1.53-.46.41-.3.75-.68,1.01-1.14-.02-.07-.03-.14-.03-.21v-.21Z"/>
      <path class="cls-1" d="M31.87,27.22v-9.79c-.43.48-.96.95-1.58,1.41-.62.47-1.21.99-1.77,1.58-.56.59-1.04,1.27-1.43,2.05-.39.78-.58,1.73-.58,2.86,0,.54.06,1.05.18,1.51s.3.88.54,1.24c.24.36.54.64.89.85.36.21.78.31,1.25.31.61,0,1.12-.15,1.53-.46.41-.3.75-.68,1.01-1.14-.02-.07-.03-.14-.03-.21v-.21Z"/>
      <path class="cls-1" d="M192.83,27.22v-9.79c-.43.48-.96.95-1.58,1.41-.62.47-1.21.99-1.77,1.58-.56.59-1.04,1.27-1.43,2.05-.39.78-.58,1.73-.58,2.86,0,.54.06,1.05.18,1.51s.3.88.54,1.24c.24.36.54.64.89.85.36.21.78.31,1.25.31.61,0,1.12-.15,1.53-.46.41-.3.75-.68,1.01-1.14-.02-.07-.03-.14-.03-.21v-.21Z"/>
      <path class="cls-2" d="M21.84,3.69c.14-.21.31-.4.5-.59.2-.18.4-.34.62-.47.22-.13.42-.19.62-.19v-.49h-3.12v.49c.2,0,.35.06.46.19.11.13.18.29.21.47.03.18.04.38.02.59-.02.21-.05.39-.1.54l-6.44,20.26L8.16,4.23c-.04-.15-.08-.33-.1-.54-.02-.21-.02-.4.02-.59.03-.18.1-.34.21-.47.11-.13.26-.19.46-.19v-.49H0v.49c.2,0,.4.06.62.19.22.13.42.29.62.47.2.18.36.38.5.59.14.21.23.39.28.54.26.82.58,1.82.96,2.98.38,1.16.78,2.41,1.2,3.76.42,1.34.86,2.74,1.32,4.18.46,1.44.9,2.86,1.33,4.24,1.04,3.23,2.12,6.63,3.25,10.21h3.42c1.13-3.58,2.21-6.98,3.25-10.21.43-1.39.88-2.8,1.35-4.24.47-1.44.91-2.83,1.33-4.18.42-1.34.82-2.6,1.19-3.76.37-1.16.68-2.15.94-2.98.04-.15.13-.33.28-.54Z"/>
      <path class="cls-2" d="M37.43,28.39c-.11-.2-.2-.4-.26-.62-.06-.22-.1-.4-.1-.55v-10.93c0-.87-.12-1.7-.37-2.49-.25-.79-.68-1.48-1.3-2.08-.62-.6-1.44-1.07-2.47-1.43-1.03-.36-2.31-.54-3.85-.54-.74,0-1.51.13-2.33.39-.81.26-1.56.62-2.24,1.07-.68.46-1.24,1-1.68,1.63-.43.63-.65,1.3-.65,2.02,0,.8.24,1.48.72,2.03.48.55,1.06.83,1.76.83.61,0,1.08-.19,1.43-.57.35-.38.52-.8.52-1.25,0-.39-.08-.7-.24-.93-.16-.23-.34-.43-.54-.62-.19-.18-.37-.37-.54-.57-.16-.2-.24-.47-.24-.81,0-.41.11-.79.34-1.12s.52-.62.88-.86c.36-.24.76-.42,1.2-.55s.87-.2,1.29-.2c.63,0,1.14.14,1.54.42.4.28.71.67.94,1.15.23.49.39,1.05.49,1.67.1.63.15,1.3.15,2.02v1.27c-.43.41-.99.79-1.67,1.14-.68.35-1.42.69-2.2,1.04-.78.35-1.57.72-2.37,1.11-.8.39-1.52.82-2.16,1.3-.64.48-1.16,1.02-1.56,1.64-.4.62-.6,1.34-.6,2.16s.18,1.53.55,2.13c.37.6.87,1.09,1.51,1.48s1.38.68,2.23.86,1.76.28,2.73.28,1.76-.16,2.36-.49,1.06-.72,1.38-1.17c.15.33.36.58.62.76.26.18.54.31.83.39.29.08.57.12.83.15.26.02.46.03.58.03h3.45v-.49c-.2,0-.37-.07-.54-.21-.16-.14-.3-.31-.41-.5ZM30.9,28.78c-.41.3-.92.46-1.53.46-.48,0-.89-.1-1.25-.31-.36-.21-.66-.49-.89-.85-.24-.36-.42-.77-.54-1.24s-.18-.97-.18-1.51c0-1.13.2-2.08.58-2.86.39-.78.87-1.46,1.43-2.05.56-.59,1.15-1.11,1.77-1.58.62-.47,1.14-.94,1.58-1.41v10c0,.08.01.15.03.21-.26.46-.6.83-1.01,1.14Z"/>
      <path class="cls-2" d="M47.84,28.39c-.11-.2-.2-.4-.26-.62-.07-.22-.1-.4-.1-.55V0h-.49c0,.33-.18.64-.55.94-.37.3-.84.58-1.42.83-.57.25-1.22.45-1.93.6-.72.15-1.42.23-2.11.23v.49c.28,0,.5.07.67.21.16.14.29.32.39.54.1.22.16.46.19.73.03.27.05.53.05.76v21.89c0,.15-.03.34-.1.55-.06.22-.15.42-.26.62-.11.19-.24.36-.41.5-.16.14-.34.21-.54.21v.49h7.81v-.49c-.2,0-.37-.07-.54-.21-.16-.14-.3-.31-.41-.5Z"/>
      <path class="cls-2" d="M65.86,12.2c-.8-.82-1.73-1.44-2.78-1.84s-2.15-.6-3.3-.6c-1.06,0-2.11.21-3.16.63s-1.97,1.06-2.8,1.9-1.49,1.9-2,3.15c-.51,1.26-.76,2.72-.76,4.39s.27,3.13.81,4.39c.54,1.26,1.27,2.31,2.18,3.15.91.85,1.97,1.48,3.17,1.9s2.48.63,3.82.63c1.67,0,3.11-.42,4.31-1.25,1.2-.83,2.05-1.95,2.55-3.33l-.46-.16c-.56,1.41-1.4,2.47-2.52,3.19s-2.34,1.07-3.66,1.07c-.74,0-1.41-.22-2.02-.67-.61-.44-1.13-1.07-1.56-1.89s-.77-1.79-1.01-2.94c-.24-1.15-.37-2.44-.39-3.87h12.2v-.42c0-1.67-.24-3.12-.72-4.36s-1.12-2.27-1.92-3.09ZM56.3,19.64c0-1.45.07-2.76.2-3.92.13-1.16.34-2.15.62-2.96.28-.81.64-1.44,1.07-1.87.43-.43.96-.65,1.59-.65s1.17.18,1.61.54c.44.36.81.92,1.09,1.68.28.76.49,1.73.62,2.91.13,1.18.19,2.61.19,4.28h-6.99Z"/>
      <path class="cls-2" d="M85.73,10.49c-.39-.23-.83-.41-1.33-.54s-1.01-.2-1.53-.2c-1.04,0-2.04.2-2.99.6s-1.82.95-2.6,1.64v-3.25h-.49c0,.33-.18.64-.55.94-.37.3-.84.58-1.42.83-.57.25-1.22.45-1.93.6-.72.15-1.42.23-2.11.23v.49c.28,0,.5.07.67.21.16.14.29.32.39.54.1.22.16.46.19.73.03.27.05.53.05.76v13.14c0,.15-.03.34-.1.55-.06.22-.15.42-.26.62-.11.19-.24.36-.41.5-.16.14-.34.21-.54.21v.49h7.81v-.49c-.2,0-.37-.07-.54-.21-.16-.14-.3-.31-.41-.5-.11-.2-.2-.4-.26-.62-.07-.22-.1-.4-.1-.55v-14.54c.5-.48,1.02-.88,1.56-1.2.54-.33,1.06-.49,1.56-.49s.87.18,1.17.54c.3.36.61.75.91,1.19.3.43.63.83.99,1.19.36.36.82.54,1.38.54.65,0,1.18-.18,1.58-.54.4-.36.6-.86.6-1.51,0-.39-.12-.75-.36-1.07-.24-.33-.55-.6-.94-.83Z"/>
      <path class="cls-2" d="M96.5,28.39c-.11-.2-.2-.4-.26-.62-.07-.22-.1-.4-.1-.55V8.75h-.49c0,.33-.18.64-.55.94-.37.3-.84.58-1.42.83-.57.25-1.22.45-1.93.6-.72.15-1.42.23-2.11.23v.49c.28,0,.5.07.67.21.16.14.29.32.39.54.1.22.16.46.19.73.03.27.05.53.05.76v13.14c0,.15-.03.34-.1.55-.06.22-.15.42-.26.62-.11.19-.24.36-.41.5-.16.14-.34.21-.54.21v.49h7.81v-.49c-.2,0-.37-.07-.54-.21-.16-.14-.3-.31-.41-.5Z"/>
      <path class="cls-2" d="M92.92,7.81c.82,0,1.52-.28,2.08-.85.56-.56.85-1.26.85-2.08s-.28-1.52-.85-2.08c-.56-.56-1.26-.85-2.08-.85s-1.52.28-2.08.85c-.56.56-.85,1.26-.85,2.08s.28,1.52.85,2.08c.56.56,1.26.85,2.08.85Z"/>
      <path class="cls-2" d="M115.85,28.39c-.11-.2-.2-.4-.26-.62-.06-.22-.1-.4-.1-.55v-10.93c0-.87-.12-1.7-.37-2.49-.25-.79-.68-1.48-1.3-2.08-.62-.6-1.44-1.07-2.47-1.43-1.03-.36-2.31-.54-3.85-.54-.74,0-1.51.13-2.33.39-.81.26-1.56.62-2.24,1.07-.68.46-1.24,1-1.68,1.63-.43.63-.65,1.3-.65,2.02,0,.8.24,1.48.72,2.03.48.55,1.06.83,1.76.83.61,0,1.08-.19,1.43-.57.35-.38.52-.8.52-1.25,0-.39-.08-.7-.24-.93-.16-.23-.34-.43-.54-.62-.19-.18-.37-.37-.54-.57-.16-.2-.24-.47-.24-.81,0-.41.11-.79.34-1.12s.52-.62.88-.86c.36-.24.76-.42,1.2-.55s.87-.2,1.29-.2c.63,0,1.14.14,1.54.42.4.28.71.67.94,1.15.23.49.39,1.05.49,1.67.1.63.15,1.3.15,2.02v1.27c-.43.41-.99.79-1.67,1.14-.68.35-1.42.69-2.2,1.04-.78.35-1.57.72-2.37,1.11-.8.39-1.52.82-2.16,1.3-.64.48-1.16,1.02-1.56,1.64-.4.62-.6,1.34-.6,2.16s.18,1.53.55,2.13c.37.6.87,1.09,1.51,1.48s1.38.68,2.23.86,1.76.28,2.73.28,1.76-.16,2.36-.49,1.06-.72,1.38-1.17c.15.33.36.58.62.76.26.18.54.31.83.39.29.08.57.12.83.15.26.02.46.03.58.03h3.45v-.49c-.2,0-.37-.07-.54-.21-.16-.14-.3-.31-.41-.5ZM109.31,28.78c-.41.3-.92.46-1.53.46-.48,0-.89-.1-1.25-.31-.36-.21-.66-.49-.89-.85-.24-.36-.42-.77-.54-1.24s-.18-.97-.18-1.51c0-1.13.2-2.08.58-2.86.39-.78.87-1.46,1.43-2.05.56-.59,1.15-1.11,1.77-1.58.62-.47,1.14-.94,1.58-1.41v10c0,.08.01.15.03.21-.26.46-.6.83-1.01,1.14Z"/>
      <path class="cls-2" d="M146.11,3.69c.14-.21.31-.4.5-.59.2-.18.4-.34.62-.47.22-.13.42-.19.62-.19v-.49h-3.12v.49c.2,0,.35.06.46.19.11.13.18.29.21.47.03.18.04.38.02.59-.02.21-.05.39-.1.54l-6.44,20.26-6.44-20.26c-.04-.15-.08-.33-.1-.54-.02-.21-.02-.4.02-.59.03-.18.1-.34.21-.47.11-.13.26-.19.46-.19v-.49h-8.75v.49c.2,0,.4.06.62.19.22.13.42.29.62.47.2.18.36.38.5.59.14.21.23.39.28.54.26.82.58,1.82.96,2.98.38,1.16.78,2.41,1.2,3.76.42,1.34.86,2.74,1.32,4.18.46,1.44.9,2.86,1.33,4.24,1.04,3.23,2.12,6.63,3.25,10.21h3.42c1.13-3.58,2.21-6.98,3.25-10.21.43-1.39.88-2.8,1.35-4.24.47-1.44.91-2.83,1.33-4.18.42-1.34.82-2.6,1.19-3.76.37-1.16.68-2.15.94-2.98.04-.15.13-.33.28-.54Z"/>
      <path class="cls-2" d="M160.37,12.2c-.8-.82-1.73-1.44-2.78-1.84s-2.15-.6-3.3-.6c-1.06,0-2.11.21-3.16.63s-1.97,1.06-2.8,1.9-1.49,1.9-2,3.15c-.51,1.26-.76,2.72-.76,4.39s.27,3.13.81,4.39c.54,1.26,1.27,2.31,2.18,3.15.91.85,1.97,1.48,3.17,1.9s2.48.63,3.82.63c1.67,0,3.11-.42,4.31-1.25,1.2-.83,2.05-1.95,2.55-3.33l-.46-.16c-.56,1.41-1.4,2.47-2.52,3.19s-2.34,1.07-3.66,1.07c-.74,0-1.41-.22-2.02-.67-.61-.44-1.13-1.07-1.56-1.89s-.77-1.79-1.01-2.94c-.24-1.15-.37-2.44-.39-3.87h12.2v-.42c0-1.67-.24-3.12-.72-4.36s-1.12-2.27-1.92-3.09ZM150.81,19.64c0-1.45.07-2.76.2-3.92.13-1.16.34-2.15.62-2.96.28-.81.64-1.44,1.07-1.87.43-.43.96-.65,1.59-.65s1.17.18,1.61.54c.44.36.81.92,1.09,1.68.28.76.49,1.73.62,2.91.13,1.18.19,2.61.19,4.28h-6.99Z"/>
      <path class="cls-2" d="M179.58,28.44c-.73-.42-1.55-.76-2.47-1.02s-1.87-.48-2.85-.65c-.98-.17-1.92-.33-2.85-.47-.92-.14-1.75-.3-2.47-.49-.73-.18-1.31-.42-1.76-.7-.45-.28-.67-.65-.67-1.11s.11-.79.34-1.07c.23-.28.5-.51.83-.68.74.54,1.55.95,2.44,1.24.89.28,1.81.42,2.76.42s1.97-.15,2.91-.46c.94-.3,1.78-.76,2.52-1.37s1.33-1.35,1.79-2.23.68-1.89.68-3.04c0-.98-.17-1.85-.5-2.63s-.79-1.46-1.35-2.03c-.56-.57-1.21-1.05-1.95-1.43-.74-.38-1.52-.64-2.34-.8.17-.3.41-.54.7-.72.29-.17.61-.26.96-.26.26,0,.52.04.78.13.26.09.53.18.8.28.27.1.55.19.84.28.29.09.61.13.96.13.69,0,1.29-.15,1.8-.46s.76-.76.76-1.37c0-.35-.08-.66-.24-.93-.16-.27-.38-.5-.65-.68-.27-.18-.58-.33-.91-.42-.34-.1-.69-.15-1.06-.15-.65,0-1.24.11-1.77.33s-1.01.51-1.45.88c-.43.37-.82.8-1.15,1.3-.34.5-.62,1.03-.86,1.59-.41-.06-.83-.1-1.27-.1-.98,0-1.93.15-2.88.46s-1.78.76-2.52,1.37c-.74.61-1.33,1.34-1.77,2.21s-.67,1.88-.67,3.02.21,2.08.62,2.93c.41.85.96,1.57,1.66,2.18-.58.35-1.14.83-1.66,1.45-.52.62-.78,1.41-.78,2.39,0,1.21.29,2.18.88,2.89.58.72,1.34,1.29,2.28,1.72-.41.11-.84.25-1.28.44-.45.18-.85.41-1.2.67-.36.26-.66.56-.89.91-.24.35-.36.76-.36,1.24,0,.61.15,1.13.46,1.56.3.43.71.8,1.2,1.11.5.3,1.07.55,1.71.73.64.18,1.29.33,1.95.44.66.11,1.31.18,1.95.21.64.03,1.2.05,1.67.05.98,0,1.98-.1,3.01-.29,1.03-.19,1.97-.5,2.81-.93s1.54-.98,2.1-1.66.83-1.51.83-2.49-.22-1.71-.67-2.34c-.45-.63-1.03-1.15-1.76-1.58ZM170.42,14.21c.11-.8.27-1.5.47-2.08s.48-1.05.81-1.38c.34-.34.73-.5,1.19-.5s.86.17,1.2.5c.35.34.63.8.85,1.38.22.59.38,1.28.49,2.08s.16,1.67.16,2.6-.05,1.83-.16,2.63c-.11.8-.27,1.5-.49,2.08-.22.59-.5,1.05-.85,1.38-.35.34-.75.5-1.2.5s-.85-.17-1.19-.5c-.34-.34-.61-.8-.81-1.38s-.36-1.28-.47-2.08c-.11-.8-.16-1.68-.16-2.63s.05-1.8.16-2.6ZM178.54,35.84c-.4.35-.9.62-1.5.83-.6.21-1.24.35-1.92.44-.68.09-1.31.13-1.87.13-.8,0-1.53-.08-2.2-.23-.66-.15-1.23-.37-1.71-.67-.48-.29-.85-.67-1.11-1.12-.26-.46-.39-.99-.39-1.59,0-.69.14-1.27.42-1.72.28-.46.59-.81.91-1.07,1.04.35,2.15.6,3.32.76s2.25.35,3.24.57c.99.22,1.8.5,2.44.85.64.35.96.87.96,1.56,0,.5-.2.92-.6,1.27Z"/>
      <path class="cls-2" d="M198.39,28.39c-.11-.2-.2-.4-.26-.62-.06-.22-.1-.4-.1-.55v-10.93c0-.87-.12-1.7-.37-2.49-.25-.79-.68-1.48-1.3-2.08-.62-.6-1.44-1.07-2.47-1.43-1.03-.36-2.31-.54-3.85-.54-.74,0-1.51.13-2.33.39-.81.26-1.56.62-2.24,1.07-.68.46-1.24,1-1.68,1.63-.43.63-.65,1.3-.65,2.02,0,.8.24,1.48.72,2.03.48.55,1.06.83,1.76.83.61,0,1.08-.19,1.43-.57.35-.38.52-.8.52-1.25,0-.39-.08-.7-.24-.93-.16-.23-.34-.43-.54-.62-.19-.18-.37-.37-.54-.57-.16-.2-.24-.47-.24-.81,0-.41.11-.79.34-1.12s.52-.62.88-.86c.36-.24.76-.42,1.2-.55s.87-.2,1.29-.2c.63,0,1.14.14,1.54.42.4.28.71.67.94,1.15.23.49.39,1.05.49,1.67.1.63.15,1.3.15,2.02v1.27c-.43.41-.99.79-1.67,1.14-.68.35-1.42.69-2.2,1.04-.78.35-1.57.72-2.37,1.11-.8.39-1.52.82-2.16,1.3-.64.48-1.16,1.02-1.56,1.64-.4.62-.6,1.34-.6,2.16s.18,1.53.55,2.13c.37.6.87,1.09,1.51,1.48s1.38.68,2.23.86,1.76.28,2.73.28,1.76-.16,2.36-.49,1.06-.72,1.38-1.17c.15.33.36.58.62.76.26.18.54.31.83.39.29.08.57.12.83.15.26.02.46.03.58.03h3.45v-.49c-.2,0-.37-.07-.54-.21-.16-.14-.3-.31-.41-.5ZM191.85,28.78c-.41.3-.92.46-1.53.46-.48,0-.89-.1-1.25-.31-.36-.21-.66-.49-.89-.85-.24-.36-.42-.77-.54-1.24s-.18-.97-.18-1.51c0-1.13.2-2.08.58-2.86.39-.78.87-1.46,1.43-2.05.56-.59,1.15-1.11,1.77-1.58.62-.47,1.14-.94,1.58-1.41v10c0,.08.01.15.03.21-.26.46-.6.83-1.01,1.14Z"/>
      <path class="cls-3" d="M209.31,28.34c-.1-.36-.32-.64-.66-.84-.2-.12-.43-.19-.7-.22-.27-.03-.56-.05-.87-.06-.31-.01-.62-.04-.94-.07-.32-.03-.62-.11-.91-.23.29-.12.59-.19.91-.23.32-.03.63-.06.94-.07.31-.01.6-.04.87-.07.27-.03.5-.1.7-.21.34-.18.56-.46.65-.83.09-.37.05-.72-.14-1.07-.18-.34-.46-.56-.83-.65-.37-.09-.72-.05-1.07.14-.2.11-.38.27-.54.49-.16.22-.33.47-.49.74-.16.27-.34.54-.53.8-.19.26-.41.49-.64.67.04-.32.12-.62.25-.91.12-.29.26-.57.41-.85.14-.28.27-.54.39-.8.11-.26.17-.5.17-.72,0-.38-.14-.71-.41-.98-.27-.27-.6-.41-.98-.41s-.71.14-.98.41c-.27.27-.41.6-.41.98,0,.22.06.46.17.71.11.25.24.51.39.79.14.28.28.56.42.86.13.3.22.6.26.9-.25-.18-.47-.41-.65-.67-.18-.26-.36-.52-.53-.78-.17-.26-.34-.5-.5-.72-.17-.22-.35-.4-.54-.51-.34-.2-.7-.25-1.06-.15-.36.1-.64.32-.84.66-.2.34-.25.7-.15,1.06.1.36.32.64.66.84.2.12.43.19.71.22.28.03.57.05.89.06.32.01.64.04.96.07.32.03.63.11.92.23-.29.12-.6.2-.92.24-.32.04-.64.07-.96.08-.32.01-.61.03-.89.06-.28.03-.51.09-.71.2-.34.18-.56.46-.65.83-.09.37-.05.72.14,1.07.18.34.46.56.83.65.37.09.72.05,1.07-.14.2-.11.38-.27.54-.49.16-.22.33-.47.5-.73.17-.26.35-.53.53-.79.18-.26.4-.49.65-.67-.04.3-.13.6-.26.9-.13.3-.27.58-.42.86-.15.28-.27.54-.39.79-.11.25-.17.49-.17.71,0,.38.14.71.41.98.27.27.6.41.98.41s.71-.14.98-.41c.27-.27.41-.6.41-.98,0-.22-.06-.46-.17-.72-.11-.26-.24-.52-.39-.8-.15-.28-.28-.56-.41-.85-.13-.29-.21-.59-.25-.91.24.18.45.41.64.67.19.26.37.53.53.79.16.26.33.51.49.73.16.22.35.4.54.51.34.2.69.25,1.06.15.36-.1.64-.32.84-.66.2-.34.25-.69.15-1.06Z"/>
    </g>
  </g>
</svg>